<svg xmlns="http://www.w3.org/2000/svg" viewBox="0 0 64 64" fill="currentColor">
  <path d="M52 28h-2.5l-5-12a4 4 0 0 0-3.7-2.5H23.2a4 4 0 0 0-3.7 2.5l-5 12H12a4 4 0 0 0-4 4v14a4 4 0 0 0 4 4h2a6 6 0 0 0 12 0h12a6 6 0 0 0 12 0h2a4 4 0 0 0 4-4V32a4 4 0 0 0-4-4zM18 50a4 4 0 1 1 4-4 4 4 0 0 1-4 4zm5.8-22l4-9.6a1 1 0 0 1 .9-.4h6.6v10H23.8zm12.5-10h4.9a1 1 0 0 1 .9.4l4 9.6h-9.8V18zM46 50a4 4 0 1 1 4-4 4 4 0 0 1-4 4z"/>
  <rect x="12" y="34" width="8" height="4" rx="1"/>
  <rect x="44" y="34" width="8" height="4" rx="1"/>
</svg>
