<svg xmlns="http://www.w3.org/2000/svg" viewBox="0 0 64 64" fill="currentColor">
  <path d="M54 26h-3l-4-10a4 4 0 0 0-3.7-2.5H20.7A4 4 0 0 0 17 16l-4 10h-3a4 4 0 0 0-4 4v16a4 4 0 0 0 4 4h2a7 7 0 0 0 14 0h12a7 7 0 0 0 14 0h2a4 4 0 0 0 4-4V30a4 4 0 0 0-4-4zM19 52a5 5 0 1 1 5-5 5 5 0 0 1-5 5zm3.4-26l3.2-8a1 1 0 0 1 .9-.5h11v8.5H22.4zm14.1-8.5h6.5a1 1 0 0 1 .9.5l3.2 8h-10.6V17.5zM45 52a5 5 0 1 1 5-5 5 5 0 0 1-5 5z"/>
  <rect x="10" y="32" width="10" height="5" rx="1"/>
  <rect x="44" y="32" width="10" height="5" rx="1"/>
  <path d="M32 14v-2a1 1 0 0 0-1-1h-6a1 1 0 0 0 0 2h5v1z"/>
</svg>
