<svg xmlns="http://www.w3.org/2000/svg" viewBox="0 0 64 64" fill="currentColor">
  <path d="M54 24h-6l-4-8a4 4 0 0 0-3.6-2H12a4 4 0 0 0-4 4v26a4 4 0 0 0 4 4h2a6 6 0 0 0 12 0h16a6 6 0 0 0 12 0h4a4 4 0 0 0 4-4V28a4 4 0 0 0-4-4zM20 52a4 4 0 1 1 4-4 4 4 0 0 1-4 4zm22-32h2.4a2 2 0 0 1 1.8 1l3 6H42V20zm0 10h14v10H42V30zm6 22a4 4 0 1 1 4-4 4 4 0 0 1-4 4z"/>
  <rect x="12" y="20" width="26" height="18" rx="2"/>
  <rect x="14" y="22" width="10" height="8" rx="1"/>
  <rect x="26" y="22" width="10" height="8" rx="1"/>
</svg>
